<svg width="78" height="30" viewBox="0 0 78 30" fill="none" xmlns="http://www.w3.org/2000/svg">
<g clip-path="url(#clip0)">
<path fill-rule="evenodd" clip-rule="evenodd" d="M11.6493 18.1723L11.6799 17.8953C12.022 16.1706 11.2139 15.4315 8.66393 15.4315C6.20713 15.4315 5.11883 16.1706 4.80798 17.8953L4.74606 18.203C4.40393 19.9283 5.52351 20.6987 7.73074 20.6987C10.0012 20.6987 11.369 19.6506 11.6493 18.1723ZM20.3244 16.9098L23.2478 0.522128C23.2738 0.375829 23.3505 0.243358 23.4644 0.147903C23.5783 0.052449 23.7221 9.29876e-05 23.8707 0L27.2818 0C27.3742 9.0796e-05 27.4655 0.0204007 27.5492 0.0595045C27.6329 0.0986082 27.707 0.155558 27.7664 0.226358C27.8257 0.297157 27.8689 0.380091 27.8928 0.469338C27.9167 0.558585 27.9208 0.651984 27.9048 0.742979L26.948 6.16021C28.1295 5.29787 29.4354 4.68191 31.8303 4.68191C36.4944 4.68191 38.3288 7.7617 37.6758 11.4268L36.5876 17.4638C35.8101 21.8681 33.2295 23.9936 27.4765 23.9936C22.0663 23.9936 19.5782 21.0064 20.3244 16.9098ZM32.048 16.7247L32.9186 11.8889C33.2601 9.97915 32.5139 8.68596 29.9952 8.68596C27.4458 8.68596 26.2637 9.97915 25.9216 11.8889L25.051 16.7247C24.7088 18.6345 25.4556 19.9283 28.005 19.9283C30.5237 19.9283 31.7058 18.6345 32.048 16.7247ZM56.8305 15.616H44.8592L44.6103 17.0943C44.3301 18.727 44.8273 20.2053 47.8133 20.2053C50.3939 20.2053 51.638 19.4662 51.9175 17.9266C51.9261 17.883 51.9496 17.8438 51.984 17.8156C52.0183 17.7874 52.0614 17.772 52.1058 17.7721H55.8348C55.9119 17.7722 55.9881 17.7889 56.0582 17.8211C56.1283 17.8533 56.1906 17.9002 56.2409 17.9587C56.2912 18.0171 56.3282 18.0858 56.3496 18.1599C56.3709 18.234 56.376 18.3118 56.3646 18.3881C55.7116 22.0226 53.1303 23.9936 47.4399 23.9936C41.8114 23.9936 39.3865 20.9445 40.1014 17.033L41.0965 11.3349C41.9358 6.89936 44.5171 4.68191 50.2695 4.68191C55.8048 4.68191 58.261 7.66915 57.5461 11.6738L56.8312 15.616H56.8305ZM45.5741 11.6426L45.419 12.5974H52.8507L53.0371 11.6119C53.3793 9.64085 52.5712 8.47021 49.8967 8.47021C47.129 8.47021 45.9163 9.76404 45.5741 11.6426ZM67.7141 18.5113C70.2641 18.5113 71.4456 17.2174 71.7878 15.3696L72.3788 11.9509C72.7203 10.0717 71.9741 8.80915 69.4554 8.80915C66.9367 8.80915 65.7552 10.0717 65.4131 11.9509L64.8227 15.3696C64.4805 17.2174 65.1954 18.5113 67.7141 18.5113ZM69.8907 4.68191C75.3016 4.68191 77.8516 7.73106 77.1048 11.8889L75.1152 23.0387C74.1814 28.1209 71.2899 30 66.2218 30H65.6933C61.1844 30 58.261 27.7513 58.7276 24.0862C58.7451 23.9912 58.7954 23.9053 58.8697 23.8435C58.944 23.7817 59.0375 23.7479 59.1341 23.7479H63.2365C62.9875 25.1643 64.0139 26.1498 66.1905 26.1498C68.9582 26.1498 70.1084 24.8872 70.4192 23.1313L70.8546 20.8213C69.6737 21.7455 68.3984 22.2689 65.9109 22.2689C61.6197 22.2689 59.4118 19.343 60.1267 15.3083L60.811 11.3962C61.5884 6.99191 64.169 4.68128 69.8907 4.68128V4.68191ZM13.7065 2.42809C13.8027 2.42818 13.8977 2.45022 13.9841 2.49253C14.0706 2.53483 14.1463 2.59629 14.2054 2.67223C14.2645 2.74816 14.3056 2.83658 14.3254 2.93076C14.3453 3.02494 14.3434 3.12241 14.3199 3.21574L13.8482 5.08851C16.7014 6.01404 18.0897 8.43192 17.5567 11.4268L16.4378 17.7102C15.7484 21.5547 13.508 23.3432 10.0248 23.8596L9.60989 25.5032C9.57548 25.64 9.49639 25.7614 9.38515 25.8481C9.27391 25.9348 9.1369 25.9819 8.99585 25.9819H5.27074C5.17437 25.9819 5.07927 25.96 4.99268 25.9177C4.90609 25.8754 4.83029 25.8139 4.77107 25.7378C4.71185 25.6618 4.67077 25.5733 4.65095 25.479C4.63113 25.3846 4.63309 25.2871 4.6567 25.1936L4.98798 23.8819C1.56862 23.3285 -0.34883 21.2132 0.0494674 18.2649L0.112021 17.8334C0.54734 14.476 2.8484 12.5049 8.22798 12.5049C10.2801 12.5049 11.8037 12.8132 12.5193 13.2134L12.7988 11.5813C13.141 9.79468 12.3329 8.5934 10.0312 8.5934C8.10351 8.5934 6.70436 9.24 6.42479 10.8721H1.94649C2.47755 7.13362 4.51819 5.11277 8.9033 4.74383L9.36734 2.90553C9.40199 2.76898 9.48119 2.64788 9.59241 2.56141C9.70362 2.47493 9.8405 2.42802 9.98138 2.42809H13.7058H13.7065Z" fill="#575A65"/>
</g>
<defs>
<clipPath id="clip0">
<rect width="77.234" height="30" fill="white"/>
</clipPath>
</defs>
</svg>
